<svg width="10" height="10" viewBox="0 0 10 10" fill="none" xmlns="http://www.w3.org/2000/svg">
<path d="M9 5C9 7.20914 7.20914 9 5 9C2.79086 9 1 7.20914 1 5C1 2.79086 2.79086 1 5 1C7.20914 1 9 2.79086 9 5Z" fill="white"/>
<path fill-rule="evenodd" clip-rule="evenodd" d="M5 7.4C6.32548 7.4 7.4 6.32548 7.4 5C7.4 3.67452 6.32548 2.6 5 2.6C3.67452 2.6 2.6 3.67452 2.6 5C2.6 6.32548 3.67452 7.4 5 7.4ZM5 9C7.20914 9 9 7.20914 9 5C9 2.79086 7.20914 1 5 1C2.79086 1 1 2.79086 1 5C1 7.20914 2.79086 9 5 9Z" fill="#FFAE00"/>
<path d="M5 10C7.76142 10 10 7.76142 10 5C10 2.23858 7.76142 0 5 0C2.23858 0 0 2.23858 0 5C0 7.76142 2.23858 10 5 10Z" stroke="#3F95FD" stroke-width="2"/>
</svg>
