<svg width="22" height="17" viewBox="0 0 22 17" fill="none" xmlns="http://www.w3.org/2000/svg">
<path d="M12.1181 0.272705C14.1672 2.69854 16.1902 5.12971 18.1482 7.61729L18.0763 7.54444C16.566 5.9974 15.0761 4.42993 13.6066 2.84202C13.3068 2.51952 13.0078 2.19614 12.7044 1.87631C12.6274 1.7936 12.5419 1.71916 12.4495 1.6542C12.2425 1.5125 12.0275 1.5165 11.8249 1.66264C11.7303 1.73171 11.6441 1.81162 11.5681 1.90074C11.275 2.24323 10.9885 2.59149 10.6984 2.93664C9.76643 4.04598 8.83358 5.15488 7.89985 6.26334C7.48096 6.76041 7.05585 7.25215 6.63474 7.74656C6.51081 7.88381 6.4085 8.03914 6.33134 8.2072C6.28758 8.30087 6.26556 8.40322 6.26693 8.5066C6.27581 8.7176 6.42152 8.86197 6.65339 8.90906C6.88527 8.95614 7.11226 8.91217 7.33615 8.85309C7.7848 8.73404 8.23168 8.60744 8.68211 8.49772C9.12924 8.38628 9.58293 8.30305 10.0405 8.24851C10.403 8.20631 10.7663 8.17211 11.1297 8.13968C11.5967 8.09913 12.0659 8.08785 12.5343 8.10592C12.8954 8.1188 13.257 8.14635 13.6164 8.18366C15.7393 8.40576 17.6943 9.10584 19.4973 10.2408C20.3621 10.7879 21.1712 11.4184 21.9129 12.1234C21.9338 12.1429 21.9542 12.1625 21.9742 12.1829C21.9787 12.1878 21.9818 12.1944 22 12.2229C21.9631 12.1971 21.9454 12.1856 21.9285 12.1727C20.8726 11.3424 19.7474 10.6237 18.5272 10.0582C17.6023 9.62609 16.6329 9.2966 15.6362 9.07563C15.2458 8.99079 14.8491 8.93215 14.4533 8.87307C14.0006 8.80555 13.544 8.78423 13.0865 8.76025C12.682 8.74298 12.2769 8.74728 11.8729 8.77313C10.4803 8.85678 9.10445 9.12016 7.77947 9.55672C6.26407 10.0424 4.81911 10.7252 3.48173 11.5876C3.10681 11.8311 2.75056 12.1029 2.38986 12.3672C1.61989 12.9314 0.850664 13.4976 0.0821791 14.0659C0.0569301 14.0857 0.0293264 14.1022 0 14.1152C3.98546 9.45899 7.98958 4.81965 12.1181 0.272705Z" fill="white"/>
<path d="M9.47092 11.9373H10.621C10.6241 11.987 10.6285 12.0319 10.6285 12.0767C10.6285 12.9287 10.6285 13.7807 10.6285 14.6332C10.6287 14.7501 10.6412 14.8667 10.6658 14.981C10.7423 15.3364 10.9768 15.5371 11.3202 15.614C11.5151 15.6573 11.7175 15.6533 11.9105 15.6024C12.2601 15.5114 12.4809 15.2702 12.5324 14.9135C12.5462 14.8187 12.5533 14.7231 12.5537 14.6274C12.5537 13.7754 12.5537 12.9234 12.5537 12.0714V11.9381H13.706C13.7116 11.9667 13.7153 11.9957 13.7171 12.0248C13.7171 12.9656 13.7234 13.9064 13.71 14.8473C13.7086 15.2958 13.5505 15.7298 13.2631 16.0742C13.0254 16.3601 12.699 16.5584 12.3356 16.6375C11.8269 16.7634 11.2944 16.7569 10.7889 16.6184C10.103 16.4251 9.70368 15.952 9.53222 15.2737C9.48634 15.0874 9.46381 14.8961 9.46514 14.7042C9.46514 13.8203 9.46514 12.9363 9.46514 12.0523C9.46559 12.0172 9.4687 11.9826 9.47092 11.9373Z" fill="white"/>
<path d="M6.00376 11.9312H7.04366C7.15293 11.9312 7.15382 11.9312 7.19247 12.0275C7.79304 13.5325 8.39347 15.0375 8.99374 16.5425C9.00174 16.5621 9.00663 16.5825 9.0164 16.6127C8.98905 16.6188 8.96128 16.6228 8.93333 16.6247C8.59958 16.6247 8.26598 16.6247 7.93252 16.6247C7.83524 16.6247 7.83435 16.6247 7.79615 16.5261C7.69487 16.2684 7.59537 16.0108 7.49453 15.7531C7.45366 15.6488 7.45278 15.6488 7.34083 15.6488H5.80742C5.69548 15.6488 5.69459 15.6488 5.65372 15.7536C5.55481 16.0077 5.4559 16.2621 5.35699 16.5167C5.31479 16.6247 5.31257 16.6247 5.19396 16.6251H4.23535C4.20381 16.6251 4.17228 16.6229 4.14651 16.6216C4.14272 16.6174 4.1393 16.613 4.13629 16.6082C4.13629 16.6051 4.1323 16.6011 4.13319 16.5985C4.74531 15.0642 5.35788 13.5299 5.97089 11.9956C5.97711 11.9765 5.9891 11.9587 6.00376 11.9312ZM6.57413 13.1723C6.51816 13.2518 6.00864 14.6502 6.00287 14.7452C6.02565 14.7517 6.04901 14.7561 6.07261 14.7581C6.40636 14.7581 6.73982 14.7581 7.07297 14.7581C7.09918 14.7554 7.12497 14.7495 7.14982 14.7408C7.11962 14.5911 6.61855 13.2309 6.57413 13.1723Z" fill="white"/>
<path d="M14.603 15.3759C14.7251 15.4266 14.8318 15.4737 14.9406 15.515C15.3612 15.6799 15.813 15.7506 16.2639 15.722C16.3662 15.7148 16.4664 15.6893 16.5597 15.6469C16.6137 15.6253 16.6614 15.5905 16.6985 15.5457C16.7356 15.5009 16.7609 15.4476 16.7721 15.3905C16.7832 15.3335 16.78 15.2745 16.7625 15.219C16.745 15.1636 16.714 15.1134 16.6721 15.073C16.5943 14.9953 16.5043 14.9309 16.4056 14.8824C16.2355 14.7936 16.056 14.7265 15.8828 14.6448C15.7095 14.563 15.5367 14.4809 15.3697 14.3876C15.266 14.326 15.1672 14.2565 15.0743 14.1797C14.4662 13.7048 14.4524 12.6996 15.1187 12.2016C15.3406 12.0335 15.5996 11.9211 15.8739 11.8738C16.4598 11.7679 17.0633 11.8208 17.6219 12.027L17.6516 12.0386C17.8018 12.099 17.8018 12.099 17.8018 12.2607C17.8018 12.5019 17.8018 12.7435 17.8018 12.9848C17.8018 13.0225 17.7982 13.0603 17.796 13.11C17.7471 13.09 17.7116 13.0771 17.6774 13.0607C17.3749 12.9189 17.0482 12.8361 16.7148 12.8168C16.5452 12.8053 16.3751 12.8268 16.2137 12.8799C16.1565 12.8987 16.1021 12.9252 16.052 12.9585C16.009 12.9857 15.9728 13.0223 15.9461 13.0656C15.9194 13.1089 15.9029 13.1577 15.898 13.2083C15.8931 13.259 15.8998 13.31 15.9176 13.3577C15.9355 13.4053 15.964 13.4482 16.0009 13.4832C16.0541 13.5353 16.1155 13.5784 16.1826 13.6106C16.3745 13.7026 16.5704 13.7848 16.7641 13.8732C16.9578 13.9616 17.1639 14.0557 17.3607 14.1535C17.4422 14.1965 17.5202 14.246 17.5939 14.3014C17.7306 14.3954 17.8439 14.5195 17.925 14.6642C18.0061 14.809 18.0529 14.9704 18.0616 15.1361C18.0819 15.3199 18.0729 15.5058 18.035 15.6869C17.9461 16.0605 17.7182 16.323 17.3815 16.4949C17.1597 16.6081 16.9171 16.6749 16.6686 16.6912C16.4071 16.7128 16.1445 16.719 15.8823 16.7099C15.4776 16.6956 15.0784 16.6119 14.7021 16.4625C14.6682 16.4534 14.6388 16.4324 14.6193 16.4033C14.5998 16.3742 14.5915 16.3391 14.5959 16.3043C14.6012 16.0276 14.5959 15.7509 14.5981 15.4737C14.5968 15.4461 14.6003 15.4204 14.603 15.3759Z" fill="white"/>
</svg>
